<svg width="697" height="697" viewBox="0 0 697 697" fill="none" xmlns="http://www.w3.org/2000/svg">
<rect width="697" height="697" rx="100" fill="black"/>
<ellipse cx="351.5" cy="348" rx="275.5" ry="286" fill="#1ED761"/>
<path d="M218.753 481.18C363.512 465.134 454.858 326.99 482.436 259.924C484.864 228.634 468.273 228.803 459.675 232.799C399.466 400.882 258.799 450.337 195.992 454.054C179.165 478.109 204.155 482.161 218.753 481.18Z" fill="black" stroke="black" stroke-width="9"/>
<path d="M224.654 262.188C265.594 401.961 417.5 467.931 488.336 483.444C519.573 480.402 516.526 464.093 511.098 456.318C335.112 426.212 261.982 296.27 247.415 235.063C220.804 222.668 221.153 247.982 224.654 262.188Z" fill="black" stroke="black" stroke-width="9"/>
</svg>
